<svg width="686" height="148" viewBox="0 0 686 148" fill="none" xmlns="http://www.w3.org/2000/svg">
<g clip-path="url(#clip0_70_1025)">
<path d="M66.3125 94.375C66.3125 92.625 66.0417 91.0625 65.5 89.6875C65 88.2708 64.0625 87 62.6875 85.875C61.3542 84.7083 59.4583 83.5833 57 82.5C54.5833 81.375 51.4583 80.2083 47.625 79C43.375 77.6667 39.4167 76.1667 35.75 74.5C32.0833 72.8333 28.8542 70.8958 26.0625 68.6875C23.3125 66.4792 21.1667 63.9375 19.625 61.0625C18.0833 58.1458 17.3125 54.7708 17.3125 50.9375C17.3125 47.1875 18.1042 43.7708 19.6875 40.6875C21.3125 37.6042 23.6042 34.9583 26.5625 32.75C29.5208 30.5 33 28.7708 37 27.5625C41.0417 26.3542 45.5 25.75 50.375 25.75C57.125 25.75 62.9583 26.9792 67.875 29.4375C72.8333 31.8958 76.6667 35.2292 79.375 39.4375C82.0833 43.6458 83.4375 48.375 83.4375 53.625H66.3125C66.3125 50.7917 65.7083 48.2917 64.5 46.125C63.3333 43.9583 61.5417 42.25 59.125 41C56.75 39.75 53.75 39.125 50.125 39.125C46.625 39.125 43.7083 39.6458 41.375 40.6875C39.0833 41.7292 37.3542 43.1458 36.1875 44.9375C35.0625 46.7292 34.5 48.7292 34.5 50.9375C34.5 52.6042 34.8958 54.1042 35.6875 55.4375C36.4792 56.7292 37.6667 57.9583 39.25 59.125C40.8333 60.25 42.7917 61.3125 45.125 62.3125C47.5 63.2708 50.25 64.2292 53.375 65.1875C58.375 66.6875 62.75 68.3542 66.5 70.1875C70.2917 72.0208 73.4375 74.1042 75.9375 76.4375C78.4792 78.7708 80.375 81.3958 81.625 84.3125C82.9167 87.2292 83.5625 90.5417 83.5625 94.25C83.5625 98.1667 82.7917 101.667 81.25 104.75C79.7083 107.833 77.5 110.458 74.625 112.625C71.75 114.792 68.2917 116.438 64.25 117.562C60.25 118.688 55.7708 119.25 50.8125 119.25C46.3958 119.25 42.0208 118.667 37.6875 117.5C33.3958 116.292 29.5 114.5 26 112.125C22.5 109.708 19.7083 106.667 17.625 103C15.5417 99.2917 14.5 94.9583 14.5 90H31.75C31.75 92.875 32.2083 95.3333 33.125 97.375C34.0833 99.375 35.4167 101.021 37.125 102.312C38.875 103.562 40.9167 104.479 43.25 105.062C45.5833 105.646 48.1042 105.938 50.8125 105.938C54.3125 105.938 57.1875 105.458 59.4375 104.5C61.7292 103.5 63.4375 102.125 64.5625 100.375C65.7292 98.625 66.3125 96.625 66.3125 94.375ZM110.72 64.25V118H94.22V50.375H109.783L110.72 64.25ZM108.283 81.75H103.22C103.22 77.0417 103.783 72.7083 104.908 68.75C106.074 64.7917 107.783 61.3542 110.033 58.4375C112.283 55.4792 115.053 53.1875 118.345 51.5625C121.678 49.9375 125.533 49.125 129.908 49.125C132.949 49.125 135.741 49.5833 138.283 50.5C140.824 51.375 143.012 52.7708 144.845 54.6875C146.72 56.5625 148.158 59.0208 149.158 62.0625C150.158 65.0625 150.658 68.6667 150.658 72.875V118H134.158V74.5625C134.158 71.3958 133.699 68.9167 132.783 67.125C131.908 65.3333 130.637 64.0833 128.97 63.375C127.303 62.625 125.303 62.25 122.97 62.25C120.387 62.25 118.158 62.7708 116.283 63.8125C114.449 64.8125 112.928 66.2083 111.72 68C110.553 69.7917 109.678 71.8542 109.095 74.1875C108.553 76.5208 108.283 79.0417 108.283 81.75ZM149.408 78.6875L142.595 79.9375C142.637 75.6875 143.22 71.7083 144.345 68C145.47 64.25 147.116 60.9792 149.283 58.1875C151.491 55.3542 154.22 53.1458 157.47 51.5625C160.762 49.9375 164.553 49.125 168.845 49.125C172.178 49.125 175.178 49.6042 177.845 50.5625C180.553 51.4792 182.866 52.9583 184.783 55C186.699 57 188.158 59.6042 189.158 62.8125C190.199 66.0208 190.72 69.9375 190.72 74.5625V118H174.095V74.5C174.095 71.2083 173.637 68.6875 172.72 66.9375C171.845 65.1875 170.574 63.9792 168.908 63.3125C167.241 62.6042 165.283 62.25 163.033 62.25C160.741 62.25 158.741 62.6875 157.033 63.5625C155.366 64.3958 153.949 65.5625 152.783 67.0625C151.658 68.5625 150.803 70.3125 150.22 72.3125C149.678 74.2708 149.408 76.3958 149.408 78.6875ZM241.503 103.625V72.4375C241.503 70.1458 241.107 68.1667 240.315 66.5C239.523 64.8333 238.315 63.5417 236.69 62.625C235.065 61.7083 233.003 61.25 230.503 61.25C228.294 61.25 226.357 61.625 224.69 62.375C223.065 63.125 221.815 64.1875 220.94 65.5625C220.065 66.8958 219.628 68.4375 219.628 70.1875H203.065C203.065 67.3958 203.732 64.75 205.065 62.25C206.398 59.7083 208.294 57.4583 210.753 55.5C213.253 53.5 216.232 51.9375 219.69 50.8125C223.19 49.6875 227.107 49.125 231.44 49.125C236.565 49.125 241.128 50 245.128 51.75C249.169 53.4583 252.336 56.0417 254.628 59.5C256.961 62.9583 258.128 67.3125 258.128 72.5625V102.062C258.128 105.438 258.336 108.333 258.753 110.75C259.211 113.125 259.878 115.188 260.753 116.938V118H243.94C243.148 116.292 242.544 114.125 242.128 111.5C241.711 108.833 241.503 106.208 241.503 103.625ZM243.815 76.8125L243.94 86.625H233.503C230.919 86.625 228.648 86.8958 226.69 87.4375C224.732 87.9375 223.128 88.6875 221.878 89.6875C220.628 90.6458 219.69 91.8125 219.065 93.1875C218.44 94.5208 218.128 96.0417 218.128 97.75C218.128 99.4167 218.503 100.917 219.253 102.25C220.044 103.583 221.169 104.646 222.628 105.438C224.128 106.188 225.878 106.562 227.878 106.562C230.794 106.562 233.336 105.979 235.503 104.812C237.669 103.604 239.357 102.146 240.565 100.438C241.773 98.7292 242.419 97.1042 242.503 95.5625L247.253 102.688C246.669 104.396 245.794 106.208 244.628 108.125C243.461 110.042 241.961 111.833 240.128 113.5C238.294 115.167 236.086 116.542 233.503 117.625C230.919 118.708 227.919 119.25 224.503 119.25C220.128 119.25 216.211 118.375 212.753 116.625C209.294 114.875 206.565 112.479 204.565 109.438C202.565 106.396 201.565 102.938 201.565 99.0625C201.565 95.4792 202.232 92.3125 203.565 89.5625C204.898 86.8125 206.878 84.5 209.503 82.625C212.128 80.7083 215.378 79.2708 219.253 78.3125C223.169 77.3125 227.648 76.8125 232.69 76.8125H243.815ZM288.223 64.1875V118H271.723V50.375H287.348L288.223 64.1875ZM308.785 49.9375L308.535 65.3125C307.618 65.1458 306.577 65.0208 305.41 64.9375C304.285 64.8542 303.223 64.8125 302.223 64.8125C299.681 64.8125 297.452 65.1667 295.535 65.875C293.618 66.5417 292.014 67.5208 290.723 68.8125C289.473 70.1042 288.514 71.6875 287.848 73.5625C287.181 75.3958 286.806 77.4792 286.723 79.8125L283.16 79.375C283.16 75.0833 283.598 71.1042 284.473 67.4375C285.348 63.7708 286.618 60.5625 288.285 57.8125C289.952 55.0625 292.035 52.9375 294.535 51.4375C297.077 49.8958 299.993 49.125 303.285 49.125C304.202 49.125 305.181 49.2083 306.223 49.375C307.306 49.5 308.16 49.6875 308.785 49.9375ZM351.693 50.375V62.25H312.943V50.375H351.693ZM323.318 33.75H339.88V98.5C339.88 100.5 340.151 102.042 340.693 103.125C341.234 104.208 342.047 104.938 343.13 105.312C344.213 105.688 345.505 105.875 347.005 105.875C348.088 105.875 349.088 105.812 350.005 105.688C350.922 105.562 351.693 105.438 352.318 105.312L352.38 117.688C351.005 118.146 349.443 118.521 347.693 118.812C345.984 119.104 344.047 119.25 341.88 119.25C338.172 119.25 334.922 118.625 332.13 117.375C329.338 116.083 327.172 114.021 325.63 111.188C324.088 108.312 323.318 104.521 323.318 99.8125V33.75Z" fill="black"/>
<path d="M406.945 27L425.133 59.4375L443.383 27H463.133L436.133 72.125L463.82 118H443.883L425.133 84.9375L406.445 118H386.445L414.133 72.125L387.133 27H406.945Z" fill="#0056BB"/>
</g>
<path d="M468.688 84.8125H445.25V71.3125H468.688C472.521 71.3125 475.625 70.6875 478 69.4375C480.417 68.1458 482.188 66.3958 483.312 64.1875C484.438 61.9375 485 59.375 485 56.5C485 53.7083 484.438 51.1042 483.312 48.6875C482.188 46.2708 480.417 44.3125 478 42.8125C475.625 41.3125 472.521 40.5625 468.688 40.5625H450.875V118H433.688V27H468.688C475.771 27 481.812 28.2708 486.812 30.8125C491.854 33.3125 495.688 36.7917 498.312 41.25C500.979 45.6667 502.312 50.7083 502.312 56.375C502.312 62.25 500.979 67.3125 498.312 71.5625C495.688 75.8125 491.854 79.0833 486.812 81.375C481.812 83.6667 475.771 84.8125 468.688 84.8125ZM549.783 103.625V72.4375C549.783 70.1458 549.387 68.1667 548.595 66.5C547.803 64.8333 546.595 63.5417 544.97 62.625C543.345 61.7083 541.283 61.25 538.783 61.25C536.574 61.25 534.637 61.625 532.97 62.375C531.345 63.125 530.095 64.1875 529.22 65.5625C528.345 66.8958 527.908 68.4375 527.908 70.1875H511.345C511.345 67.3958 512.012 64.75 513.345 62.25C514.678 59.7083 516.574 57.4583 519.033 55.5C521.533 53.5 524.512 51.9375 527.97 50.8125C531.47 49.6875 535.387 49.125 539.72 49.125C544.845 49.125 549.408 50 553.408 51.75C557.449 53.4583 560.616 56.0417 562.908 59.5C565.241 62.9583 566.408 67.3125 566.408 72.5625V102.062C566.408 105.438 566.616 108.333 567.033 110.75C567.491 113.125 568.158 115.188 569.033 116.938V118H552.22C551.428 116.292 550.824 114.125 550.408 111.5C549.991 108.833 549.783 106.208 549.783 103.625ZM552.095 76.8125L552.22 86.625H541.783C539.199 86.625 536.928 86.8958 534.97 87.4375C533.012 87.9375 531.408 88.6875 530.158 89.6875C528.908 90.6458 527.97 91.8125 527.345 93.1875C526.72 94.5208 526.408 96.0417 526.408 97.75C526.408 99.4167 526.783 100.917 527.533 102.25C528.324 103.583 529.449 104.646 530.908 105.438C532.408 106.188 534.158 106.562 536.158 106.562C539.074 106.562 541.616 105.979 543.783 104.812C545.949 103.604 547.637 102.146 548.845 100.438C550.053 98.7292 550.699 97.1042 550.783 95.5625L555.533 102.688C554.949 104.396 554.074 106.208 552.908 108.125C551.741 110.042 550.241 111.833 548.408 113.5C546.574 115.167 544.366 116.542 541.783 117.625C539.199 118.708 536.199 119.25 532.783 119.25C528.408 119.25 524.491 118.375 521.033 116.625C517.574 114.875 514.845 112.479 512.845 109.438C510.845 106.396 509.845 102.938 509.845 99.0625C509.845 95.4792 510.512 92.3125 511.845 89.5625C513.178 86.8125 515.158 84.5 517.783 82.625C520.408 80.7083 523.658 79.2708 527.533 78.3125C531.449 77.3125 535.928 76.8125 540.97 76.8125H552.095ZM612.003 50.375V62.25H573.253V50.375H612.003ZM583.628 33.75H600.19V98.5C600.19 100.5 600.461 102.042 601.003 103.125C601.544 104.208 602.357 104.938 603.44 105.312C604.523 105.688 605.815 105.875 607.315 105.875C608.398 105.875 609.398 105.812 610.315 105.688C611.232 105.562 612.003 105.438 612.628 105.312L612.69 117.688C611.315 118.146 609.753 118.521 608.003 118.812C606.294 119.104 604.357 119.25 602.19 119.25C598.482 119.25 595.232 118.625 592.44 117.375C589.648 116.083 587.482 114.021 585.94 111.188C584.398 108.312 583.628 104.521 583.628 99.8125V33.75ZM637.91 22V118H621.348V22H637.91ZM635.285 81.75H630.41C630.41 77.0417 631.035 72.7083 632.285 68.75C633.535 64.7917 635.306 61.3542 637.598 58.4375C639.889 55.4792 642.618 53.1875 645.785 51.5625C648.993 49.9375 652.535 49.125 656.41 49.125C659.743 49.125 662.764 49.6042 665.473 50.5625C668.223 51.4792 670.577 52.9583 672.535 55C674.493 57.0417 675.993 59.7083 677.035 63C678.118 66.25 678.66 70.2083 678.66 74.875V118H662.035V74.75C662.035 71.625 661.577 69.1667 660.66 67.375C659.743 65.5417 658.431 64.2292 656.723 63.4375C655.056 62.6458 652.993 62.25 650.535 62.25C647.868 62.25 645.577 62.7708 643.66 63.8125C641.743 64.8125 640.16 66.2083 638.91 68C637.702 69.7917 636.785 71.8542 636.16 74.1875C635.577 76.5208 635.285 79.0417 635.285 81.75Z" fill="#EEAECA"/>
<defs>
<clipPath id="clip0_70_1025">
<rect width="425" height="148" fill="white"/>
</clipPath>
</defs>
</svg>
