<svg width="400" height="128" viewBox="0 0 400 128" fill="none" xmlns="http://www.w3.org/2000/svg">
<path fill-rule="evenodd" clip-rule="evenodd" d="M-289 117.226L-271.325 110.14C-255.417 103.053 -221.835 88.8814 -188.252 64.0802C-154.67 39.279 -121.087 3.8488 -87.505 0.305773C-53.9225 -3.23725 -20.34 25.1069 13.2425 28.65C46.825 32.193 82.175 10.9348 115.758 18.0209C149.34 25.1069 182.923 60.5372 216.505 60.5372C250.088 60.5372 283.67 25.1069 317.253 10.9348C350.835 -3.23725 384.418 3.8488 400.325 7.39182L418 10.9348V181H400.325C384.418 181 350.835 181 317.253 181C283.67 181 250.088 181 216.505 181C182.923 181 149.34 181 115.758 181C82.175 181 46.825 181 13.2425 181C-20.34 181 -53.9225 181 -87.505 181C-121.087 181 -154.67 181 -188.252 181C-221.835 181 -255.417 181 -271.325 181H-289V117.226Z" fill="#0056BB"/>
<path fill-rule="evenodd" clip-rule="evenodd" d="M-483 153H-443C-403 153 -323 153 -243 117C-163 81 -83 9 -3 9C77 9 157 81 237 99C317 117 397 81 477 81C557 81 637 117 677 135L717 153V189H677C637 189 557 189 477 189C397 189 317 189 237 189C157 189 77 189 -3 189C-83 189 -163 189 -243 189C-323 189 -403 189 -443 189H-483V153Z" fill="#0984E3"/>
</svg>
